<svg width="23" height="20" viewBox="0 0 23 20" fill="none" xmlns="http://www.w3.org/2000/svg">
<path d="M11.7186 18.3226C11.4468 18.5907 11.311 18.7248 11.311 18.892C11.311 19.0593 11.4468 19.1933 11.7186 19.4615L11.8038 19.5456C12.069 19.8072 12.2016 19.9381 12.3657 19.9381C12.5298 19.9381 12.6624 19.8072 12.9276 19.5456L21.9229 10.6695C22.1946 10.4013 22.3305 10.2673 22.3305 10.1C22.3305 9.93275 22.1946 9.79869 21.9229 9.53056L12.9276 0.654458C12.6624 0.39279 12.5298 0.261955 12.3657 0.261955C12.2016 0.261955 12.069 0.39279 11.8038 0.654458L11.7186 0.738555C11.4468 1.00669 11.311 1.14075 11.311 1.308C11.311 1.47525 11.4468 1.60932 11.7186 1.87745L18.4921 8.56117C18.787 8.85221 18.9345 8.99773 18.8836 9.12181C18.8327 9.24589 18.6255 9.24589 18.2111 9.24589H1.3C0.922876 9.24589 0.734315 9.24589 0.617157 9.36305C0.5 9.4802 0.5 9.66877 0.5 10.0459V10.1543C0.5 10.5314 0.5 10.7199 0.617157 10.8371C0.734315 10.9543 0.922876 10.9543 1.3 10.9543H18.211C18.6253 10.9543 18.8325 10.9543 18.8834 11.0783C18.9343 11.2024 18.7869 11.3479 18.4919 11.639L11.7186 18.3226Z" fill="#00B075" style="fill:#00B075;fill:color(display-p3 0.0000 0.6902 0.4588);fill-opacity:1;"/>
</svg>
