<svg width="20" height="20" viewBox="0 0 20 20" fill="none" xmlns="http://www.w3.org/2000/svg">
<path d="M0 11.2289C0.055315 10.4435 0.796532 10.2665 1.30543 10.6758C2.72149 11.8153 4.59112 12.4127 6.61564 12.125C8.02064 11.9259 9.20437 11.3396 10.3217 10.3328C11.2953 9.29292 11.9148 8.04281 12.1139 6.62676C12.4016 4.61332 11.8042 2.73263 10.6647 1.31658C10.2554 0.807683 10.4324 0.0664698 11.2178 0.0111554C14.7469 -0.232228 20.2563 3.51809 19.9907 10.1669C19.8691 13.0654 18.8291 15.2669 17.048 17.048C15.2558 18.8291 13.0653 19.8801 10.1669 19.9907C3.51802 20.2562 -0.232321 14.758 0.0221272 11.2179L0 11.2289Z" fill="#CECFDE" style="fill:#CECFDE;fill:color(display-p3 0.8096 0.8137 0.8704);fill-opacity:1;"/>
</svg>
