<svg width="12" height="13" viewBox="0 0 12 13" fill="none" xmlns="http://www.w3.org/2000/svg">
<path fill-rule="evenodd" clip-rule="evenodd" d="M0.117157 2.36716C0 2.48431 0 2.67288 0 3.05V11.45C0 11.8271 0 12.0157 0.117157 12.1328C0.234315 12.25 0.422876 12.25 0.8 12.25H11.2C11.5771 12.25 11.7657 12.25 11.8828 12.1328C12 12.0157 12 11.8271 12 11.45V3.05C12 2.67288 12 2.48431 11.8828 2.36716C11.7657 2.25 11.5771 2.25 11.2 2.25H0.8C0.422876 2.25 0.234315 2.25 0.117157 2.36716ZM1.51559 5.36716C1.39844 5.48431 1.39844 5.67288 1.39844 6.05V10.0493C1.39844 10.4264 1.39844 10.6149 1.51559 10.7321C1.63275 10.8493 1.82131 10.8493 2.19844 10.8493H9.80156C10.1787 10.8493 10.3672 10.8493 10.4844 10.7321C10.6016 10.6149 10.6016 10.4264 10.6016 10.0493V6.05C10.6016 5.67288 10.6016 5.48431 10.4844 5.36716C10.3672 5.25 10.1787 5.25 9.80156 5.25H2.19844C1.82131 5.25 1.63275 5.25 1.51559 5.36716Z" fill="#00B075" style="fill:#00B075;fill:color(display-p3 0.0000 0.6902 0.4588);fill-opacity:1;"/>
<path d="M2 1.47C2 1.13059 2 0.960883 2.10544 0.855442C2.21088 0.75 2.38059 0.75 2.72 0.75H3.28C3.61941 0.75 3.78912 0.75 3.89456 0.855442C4 0.960883 4 1.13059 4 1.47V2.53C4 2.86941 4 3.03912 3.89456 3.14456C3.78912 3.25 3.61941 3.25 3.28 3.25H2.72C2.38059 3.25 2.21088 3.25 2.10544 3.14456C2 3.03912 2 2.86941 2 2.53V1.47Z" fill="#00B075" style="fill:#00B075;fill:color(display-p3 0.0000 0.6902 0.4588);fill-opacity:1;"/>
<path d="M8 1.47C8 1.13059 8 0.960883 8.10544 0.855442C8.21088 0.75 8.38059 0.75 8.72 0.75H9.28C9.61941 0.75 9.78912 0.75 9.89456 0.855442C10 0.960883 10 1.13059 10 1.47V2.53C10 2.86941 10 3.03912 9.89456 3.14456C9.78912 3.25 9.61941 3.25 9.28 3.25H8.72C8.38059 3.25 8.21088 3.25 8.10544 3.14456C8 3.03912 8 2.86941 8 2.53V1.47Z" fill="#00B075" style="fill:#00B075;fill:color(display-p3 0.0000 0.6902 0.4588);fill-opacity:1;"/>
</svg>
