<svg width="12" height="13" viewBox="0 0 12 13" fill="none" xmlns="http://www.w3.org/2000/svg">
<path fill-rule="evenodd" clip-rule="evenodd" d="M8.3972 4.74942C8.3972 6.0749 7.32269 7.14942 5.9972 7.14942C4.67172 7.14942 3.5972 6.0749 3.5972 4.74942C3.5972 3.42394 4.67172 2.34942 5.9972 2.34942C7.32269 2.34942 8.3972 3.42394 8.3972 4.74942ZM8.86615 8.15496C8.7246 8.05584 8.65383 8.00628 8.63118 7.95764C8.60882 7.90959 8.6056 7.87236 8.61938 7.82119C8.63334 7.76939 8.69556 7.70741 8.82 7.58347C9.54716 6.85917 9.9972 5.85685 9.9972 4.74942C9.9972 2.54028 8.20634 0.74942 5.9972 0.74942C3.78806 0.74942 1.9972 2.54028 1.9972 4.74942C1.9972 5.85719 2.44752 6.85979 3.17508 7.58414C3.29954 7.70805 3.36178 7.77001 3.37575 7.82181C3.38955 7.87298 3.38634 7.91021 3.36398 7.95826C3.34135 8.00691 3.27059 8.05648 3.12906 8.15564C2.89162 8.322 2.66854 8.50908 2.46256 8.71506C1.99826 9.17936 1.62997 9.73055 1.37869 10.3372C1.33592 10.4405 1.29668 10.545 1.261 10.6506C1.15538 10.9633 1.08107 11.2855 1.039 11.6123C1.01407 11.806 1.0016 11.9029 1.04041 11.9996C1.07187 12.078 1.14275 12.1586 1.21649 12.1998C1.30744 12.2506 1.41766 12.2506 1.63809 12.2506H10.3581C10.5785 12.2506 10.6887 12.2506 10.7797 12.1998C10.8534 12.1586 10.9243 12.078 10.9558 11.9996C10.9946 11.9029 10.9821 11.806 10.9572 11.6123C10.9151 11.2855 10.8408 10.9633 10.7352 10.6506C10.6995 10.545 10.6603 10.4405 10.6175 10.3372C10.3662 9.73055 9.99792 9.17936 9.53363 8.71506C9.32736 8.5088 9.10395 8.32149 8.86615 8.15496ZM3.22399 10.6079C3.27835 10.6506 3.36271 10.6506 3.53143 10.6506H8.46476C8.63347 10.6506 8.71783 10.6506 8.77219 10.6079C8.81605 10.5735 8.84767 10.51 8.8487 10.4543C8.84998 10.3852 8.80375 10.324 8.7113 10.2016C8.61683 10.0765 8.5136 9.95778 8.40226 9.84643C8.08654 9.53071 7.71172 9.28027 7.29922 9.10941C6.88671 8.93854 6.44459 8.8506 5.99809 8.8506C5.5516 8.8506 5.10948 8.93854 4.69697 9.10941C4.28446 9.28027 3.90965 9.53071 3.59393 9.84643C3.48258 9.95778 3.37936 10.0765 3.28488 10.2016C3.19243 10.324 3.1462 10.3852 3.14748 10.4543C3.14851 10.51 3.18013 10.5735 3.22399 10.6079Z" fill="#00B075" style="fill:#00B075;fill:color(display-p3 0.0000 0.6902 0.4588);fill-opacity:1;"/>
</svg>
