<svg width="10" height="16" viewBox="0 0 10 16" fill="none" xmlns="http://www.w3.org/2000/svg">
<path fill-rule="evenodd" clip-rule="evenodd" d="M1.69415 15.4659C1.414 15.7177 1.27393 15.8436 1.10862 15.8349C0.943306 15.8262 0.817221 15.6863 0.565052 15.4064L0.536214 15.3744C0.283467 15.094 0.157094 14.9537 0.16581 14.7881C0.174526 14.6225 0.314922 14.4963 0.595715 14.2439L6.88023 8.59497C7.18927 8.31719 7.34379 8.17829 7.34379 8C7.34379 7.8217 7.18927 7.68281 6.88023 7.40503L0.595714 1.75607C0.314921 1.50368 0.174525 1.37748 0.165809 1.21188C0.157093 1.04627 0.283467 0.906036 0.536213 0.62556L0.565051 0.593557C0.81722 0.313722 0.943305 0.173804 1.10862 0.165104C1.27393 0.156403 1.414 0.282312 1.69415 0.534131L9.33809 7.40503C9.64713 7.68281 9.80164 7.8217 9.80164 8C9.80164 8.17829 9.64713 8.31719 9.33809 8.59497L1.69415 15.4659Z" fill="#CECFDE" style="fill:#CECFDE;fill:color(display-p3 0.8096 0.8137 0.8704);fill-opacity:1;"/>
</svg>
