<svg width="20" height="20" viewBox="0 0 20 20" fill="none" xmlns="http://www.w3.org/2000/svg">
<path fill-rule="evenodd" clip-rule="evenodd" d="M9.43456 11.8922C9.70122 11.6255 9.83456 11.4922 10.0002 11.4922C10.1659 11.4922 10.2993 11.6255 10.5659 11.8922L16.2738 17.6C16.5404 17.8666 16.6738 18 16.8394 18C17.0051 18 17.1385 17.8666 17.4051 17.6L17.6 17.4051C17.8667 17.1384 18 17.0051 18 16.8394C18 16.6737 17.8667 16.5403 17.6 16.2737L11.8922 10.5659C11.6255 10.2993 11.4922 10.1659 11.4922 10.0002C11.4922 9.83455 11.6255 9.70121 11.8922 9.43455L17.6005 3.72633C17.8671 3.45967 18.0005 3.32633 18.0005 3.16064C18.0005 2.99496 17.8671 2.86162 17.6005 2.59496L17.4056 2.40006C17.1389 2.13339 17.0056 2.00006 16.8399 2.00006C16.6742 2.00006 16.5409 2.13339 16.2742 2.40006L10.5659 8.10829C10.2993 8.37495 10.1659 8.50828 10.0002 8.50828C9.83456 8.50828 9.70122 8.37495 9.43456 8.10829L3.72627 2.40006C3.45961 2.13339 3.32627 2.00006 3.16059 2.00006C2.99491 2.00006 2.86157 2.13339 2.59491 2.40006L2.40001 2.59496C2.13334 2.86162 2 2.99496 2 3.16064C2 3.32633 2.13334 3.45967 2.40001 3.72633L8.10827 9.43455C8.37494 9.70121 8.50827 9.83455 8.50827 10.0002C8.50827 10.1659 8.37494 10.2993 8.10827 10.5659L2.40046 16.2737C2.13379 16.5403 2.00045 16.6737 2.00045 16.8394C2.00045 17.0051 2.13379 17.1384 2.40046 17.4051L2.59536 17.6C2.86203 17.8666 2.99536 18 3.16104 18C3.32673 18 3.46006 17.8666 3.72673 17.6L9.43456 11.8922Z" fill="#CECFDE" style="fill:#CECFDE;fill:color(display-p3 0.8096 0.8137 0.8704);fill-opacity:1;"/>
</svg>
