<svg width="16" height="10" viewBox="0 0 16 10" fill="none" xmlns="http://www.w3.org/2000/svg">
<path fill-rule="evenodd" clip-rule="evenodd" d="M0.534132 1.69415C0.282313 1.414 0.156403 1.27393 0.165104 1.10862C0.173804 0.943306 0.313722 0.817221 0.593557 0.565052L0.62556 0.536214C0.906036 0.283467 1.04627 0.157094 1.21188 0.16581C1.37748 0.174526 1.50368 0.314922 1.75607 0.595715L7.40503 6.88023C7.68281 7.18927 7.82171 7.34379 8 7.34379C8.1783 7.34379 8.31719 7.18927 8.59497 6.88023L14.2439 0.595714C14.4963 0.314922 14.6225 0.174526 14.7881 0.16581C14.9537 0.157094 15.094 0.283467 15.3744 0.536213L15.4064 0.565052C15.6863 0.817221 15.8262 0.943306 15.8349 1.10862C15.8436 1.27393 15.7177 1.414 15.4659 1.69415L8.59497 9.33809C8.31719 9.64713 8.1783 9.80165 8 9.80165C7.82171 9.80165 7.68281 9.64713 7.40503 9.33809L0.534132 1.69415Z" fill="#CECFDE" style="fill:#CECFDE;fill:color(display-p3 0.8096 0.8137 0.8704);fill-opacity:1;"/>
</svg>
