<svg width="20" height="20" viewBox="0 0 20 20" fill="none" xmlns="http://www.w3.org/2000/svg">
<rect x="0.5" y="0.5" width="19" height="19" rx="1.5" fill="#00B075" stroke="#00A870" style="fill:#00B075;fill:color(display-p3 0.0000 0.6902 0.4588);fill-opacity:1;stroke:#00A870;stroke:color(display-p3 0.0000 0.6588 0.4392);stroke-opacity:1;"/>
<path d="M8.79085 16C8.57622 16 8.4689 16 8.37903 15.9507C8.28915 15.9014 8.23149 15.8109 8.11616 15.6299L3.7836 8.82987C3.43757 8.28678 3.26456 8.01523 3.37845 7.80761C3.49235 7.6 3.81433 7.6 4.45829 7.6H5.65454C5.86271 7.6 5.9668 7.6 6.05483 7.64678C6.14286 7.69356 6.2011 7.77983 6.31758 7.95237L9.57216 12.7731C9.60671 12.8243 9.66441 12.8549 9.72615 12.8549C9.79869 12.8549 9.8646 12.8127 9.89492 12.7468L13.7061 4.46555C13.8101 4.23943 13.8622 4.12637 13.9608 4.06318C14.0594 4 14.1839 4 14.4328 4H15.7202C16.2946 4 16.5818 4 16.6993 4.18798C16.8168 4.37596 16.691 4.63413 16.4393 5.15048L11.3708 15.5505C11.2642 15.7691 11.211 15.8784 11.1137 15.9392C11.0164 16 10.8948 16 10.6516 16H8.79085Z" fill="white" style="fill:white;fill-opacity:1;"/>
</svg>
