<svg width="16" height="10" viewBox="0 0 16 10" fill="none" xmlns="http://www.w3.org/2000/svg">
<path fill-rule="evenodd" clip-rule="evenodd" d="M2.53413 13.3058C2.28231 13.586 2.1564 13.7261 2.1651 13.8914C2.1738 14.0567 2.31372 14.1828 2.59356 14.4349L2.62556 14.4638C2.90604 14.7165 3.04627 14.8429 3.21188 14.8342C3.37748 14.8255 3.50368 14.6851 3.75607 14.4043L9.40503 8.11977C9.68281 7.81073 9.82171 7.65621 10 7.65621C10.1783 7.65621 10.3172 7.81073 10.595 8.11977L16.2439 14.4043C16.4963 14.6851 16.6225 14.8255 16.7881 14.8342C16.9537 14.8429 17.094 14.7165 17.3744 14.4638L17.4064 14.4349C17.6863 14.1828 17.8262 14.0567 17.8349 13.8914C17.8436 13.7261 17.7177 13.586 17.4659 13.3058L10.595 5.66191C10.3172 5.35287 10.1783 5.19835 10 5.19835C9.82171 5.19835 9.68281 5.35287 9.40503 5.66191L2.53413 13.3058Z" fill="#CECFDE" style="fill:#CECFDE;fill:color(display-p3 0.8096 0.8137 0.8704);fill-opacity:1;"/>
</svg>
