<svg width="22" height="22" viewBox="0 0 22 22" fill="none" xmlns="http://www.w3.org/2000/svg">
<circle cx="11" cy="11" r="5" fill="#CECFDE" style="fill:#CECFDE;fill:color(display-p3 0.8096 0.8137 0.8704);fill-opacity:1;"/>
<path fill-rule="evenodd" clip-rule="evenodd" d="M10.8 4C10.4229 4 10.2343 4 10.1172 3.88284C10 3.76569 10 3.57712 10 3.2L10 0.8C10 0.422876 10 0.234314 10.1172 0.117157C10.2343 -7.71787e-08 10.4229 -6.89366e-08 10.8 -5.24524e-08L11.2 -3.49683e-08C11.5771 -1.84841e-08 11.7657 -1.0242e-08 11.8828 0.117157C12 0.234315 12 0.422876 12 0.8L12 3.2C12 3.57712 12 3.76569 11.8828 3.88284C11.7657 4 11.5771 4 11.2 4L10.8 4Z" fill="#CECFDE" style="fill:#CECFDE;fill:color(display-p3 0.8096 0.8137 0.8704);fill-opacity:1;"/>
<path fill-rule="evenodd" clip-rule="evenodd" d="M10.8 22C10.4229 22 10.2343 22 10.1172 21.8828C10 21.7657 10 21.5771 10 21.2L10 18.8C10 18.4229 10 18.2343 10.1172 18.1172C10.2343 18 10.4229 18 10.8 18L11.2 18C11.5771 18 11.7657 18 11.8828 18.1172C12 18.2343 12 18.4229 12 18.8L12 21.2C12 21.5771 12 21.7657 11.8828 21.8828C11.7657 22 11.5771 22 11.2 22L10.8 22Z" fill="#CECFDE" style="fill:#CECFDE;fill:color(display-p3 0.8096 0.8137 0.8704);fill-opacity:1;"/>
<path fill-rule="evenodd" clip-rule="evenodd" d="M5.90959 6.19173C5.64292 6.45839 5.50959 6.59173 5.3439 6.59173C5.17822 6.59173 5.04488 6.45839 4.77822 6.19173L3.08116 4.49467C2.81449 4.228 2.68116 4.09467 2.68116 3.92898C2.68116 3.7633 2.81449 3.62997 3.08116 3.3633L3.364 3.08046C3.63067 2.81379 3.764 2.68046 3.92969 2.68046C4.09537 2.68046 4.22871 2.81379 4.49537 3.08046L6.19243 4.77751C6.4591 5.04418 6.59243 5.17751 6.59243 5.3432C6.59243 5.50888 6.4591 5.64222 6.19243 5.90888L5.90959 6.19173Z" fill="#CECFDE" style="fill:#CECFDE;fill:color(display-p3 0.8096 0.8137 0.8704);fill-opacity:1;"/>
<path fill-rule="evenodd" clip-rule="evenodd" d="M18.6361 18.9196C18.3695 19.1863 18.2361 19.3196 18.0705 19.3196C17.9048 19.3196 17.7714 19.1863 17.5048 18.9196L15.8077 17.2226C15.5411 16.9559 15.4077 16.8226 15.4077 16.6569C15.4077 16.4912 15.5411 16.3579 15.8077 16.0912L16.0906 15.8084C16.3572 15.5417 16.4906 15.4084 16.6562 15.4084C16.8219 15.4084 16.9553 15.5417 17.2219 15.8084L18.919 17.5054C19.1857 17.7721 19.319 17.9054 19.319 18.0711C19.319 18.2368 19.1857 18.3701 18.919 18.6368L18.6361 18.9196Z" fill="#CECFDE" style="fill:#CECFDE;fill:color(display-p3 0.8096 0.8137 0.8704);fill-opacity:1;"/>
<path fill-rule="evenodd" clip-rule="evenodd" d="M4 11.2C4 11.5771 4 11.7657 3.88284 11.8828C3.76569 12 3.57712 12 3.2 12L0.8 12C0.422876 12 0.234314 12 0.117157 11.8828C-7.71787e-08 11.7657 -6.89366e-08 11.5771 -5.24524e-08 11.2L-3.49683e-08 10.8C-1.84841e-08 10.4229 -1.0242e-08 10.2343 0.117157 10.1172C0.234315 10 0.422876 10 0.8 10L3.2 10C3.57712 10 3.76569 10 3.88284 10.1172C4 10.2343 4 10.4229 4 10.8L4 11.2Z" fill="#CECFDE" style="fill:#CECFDE;fill:color(display-p3 0.8096 0.8137 0.8704);fill-opacity:1;"/>
<path fill-rule="evenodd" clip-rule="evenodd" d="M22 11.2C22 11.5771 22 11.7657 21.8828 11.8828C21.7657 12 21.5771 12 21.2 12L18.8 12C18.4229 12 18.2343 12 18.1172 11.8828C18 11.7657 18 11.5771 18 11.2L18 10.8C18 10.4229 18 10.2343 18.1172 10.1172C18.2343 10 18.4229 10 18.8 10L21.2 10C21.5771 10 21.7657 10 21.8828 10.1172C22 10.2343 22 10.4229 22 10.8L22 11.2Z" fill="#CECFDE" style="fill:#CECFDE;fill:color(display-p3 0.8096 0.8137 0.8704);fill-opacity:1;"/>
<path fill-rule="evenodd" clip-rule="evenodd" d="M6.19258 16.0911C6.45925 16.3578 6.59258 16.4911 6.59258 16.6568C6.59258 16.8225 6.45925 16.9559 6.19258 17.2225L4.49552 18.9196C4.22886 19.1862 4.09552 19.3196 3.92984 19.3196C3.76415 19.3196 3.63082 19.1862 3.36415 18.9196L3.08131 18.6367C2.81464 18.3701 2.68131 18.2367 2.68131 18.071C2.68131 17.9054 2.81464 17.772 3.08131 17.5054L4.77837 15.8083C5.04503 15.5416 5.17837 15.4083 5.34405 15.4083C5.50974 15.4083 5.64307 15.5416 5.90974 15.8083L6.19258 16.0911Z" fill="#CECFDE" style="fill:#CECFDE;fill:color(display-p3 0.8096 0.8137 0.8704);fill-opacity:1;"/>
<path fill-rule="evenodd" clip-rule="evenodd" d="M18.9191 3.36318C19.1858 3.62985 19.3191 3.76318 19.3191 3.92887C19.3191 4.09455 19.1858 4.22788 18.9191 4.49455L17.2221 6.19161C16.9554 6.45827 16.8221 6.59161 16.6564 6.59161C16.4907 6.59161 16.3574 6.45827 16.0907 6.19161L15.8079 5.90876C15.5412 5.6421 15.4079 5.50876 15.4079 5.34308C15.4079 5.17739 15.5412 5.04406 15.8079 4.77739L17.5049 3.08034C17.7716 2.81367 17.9049 2.68034 18.0706 2.68034C18.2363 2.68034 18.3696 2.81367 18.6363 3.08034L18.9191 3.36318Z" fill="#CECFDE" style="fill:#CECFDE;fill:color(display-p3 0.8096 0.8137 0.8704);fill-opacity:1;"/>
</svg>
