<svg width="32" height="32" viewBox="0 0 32 32" fill="none" xmlns="http://www.w3.org/2000/svg">
<rect x="0.5" y="0.5" width="31" height="31" rx="5.5" fill="#506DB3" style="fill:#506DB3;fill:color(display-p3 0.3124 0.4291 0.7014);fill-opacity:1;"/>
<rect x="0.5" y="0.5" width="31" height="31" rx="5.5" stroke="#6482C8" style="stroke:#6482C8;stroke:color(display-p3 0.3922 0.5098 0.7843);stroke-opacity:1;"/>
<path d="M21.8672 25.0283C20.8451 25.0283 19.901 24.8298 19.0352 24.4326C18.1693 24.029 17.3945 23.4333 16.7109 22.6455L18.4492 20.9854C18.944 21.5648 19.4648 21.988 20.0117 22.2549C20.5651 22.5218 21.1836 22.6585 21.8672 22.665C22.668 22.6585 23.2962 22.4795 23.752 22.1279C24.2077 21.7764 24.4388 21.2913 24.4453 20.6729C24.4388 20.3408 24.3542 20.0576 24.1914 19.8232C24.0352 19.5824 23.7747 19.3708 23.4102 19.1885C23.0456 18.9997 22.5443 18.8174 21.9062 18.6416L21.2227 18.4658C19.8815 18.1077 18.8789 17.6032 18.2148 16.9521C17.5573 16.3011 17.2253 15.4906 17.2188 14.5205C17.2188 13.7327 17.4271 13.0199 17.8438 12.3818C18.2604 11.7438 18.8366 11.2458 19.5723 10.8877C20.3079 10.5231 21.1315 10.3408 22.043 10.3408C22.9674 10.3408 23.8464 10.5394 24.6797 10.9365C25.513 11.3337 26.2357 11.8968 26.8477 12.626L25.1289 14.2666C24.2435 13.238 23.2148 12.7171 22.043 12.7041C21.6003 12.7041 21.2031 12.779 20.8516 12.9287C20.5065 13.0785 20.2363 13.29 20.041 13.5635C19.8522 13.8304 19.7578 14.1364 19.7578 14.4814C19.7578 14.7679 19.8229 15.0088 19.9531 15.2041C20.0898 15.3994 20.3079 15.5752 20.6074 15.7314C20.9134 15.8877 21.3333 16.0374 21.8672 16.1807L22.5312 16.3564C24.0677 16.7731 25.1908 17.3265 25.9004 18.0166C26.61 18.7002 26.9648 19.5726 26.9648 20.6338C26.9648 21.4932 26.75 22.2549 26.3203 22.9189C25.8906 23.583 25.2884 24.1006 24.5137 24.4717C23.7454 24.8428 22.8633 25.0283 21.8672 25.0283Z" fill="#EFF0F4" style="fill:#EFF0F4;fill:color(display-p3 0.9365 0.9414 0.9551);fill-opacity:1;"/>
<path fill-rule="evenodd" clip-rule="evenodd" d="M18.8697 24.7963L18.8674 24.7953C17.9461 24.3658 17.1271 23.734 16.4101 22.9078L16.1602 22.6197L18.4801 20.4041L18.7547 20.7257C19.2223 21.2733 19.7011 21.6575 20.1876 21.8951C20.6811 22.133 21.2391 22.2587 21.8687 22.2651C22.6138 22.2586 23.1453 22.0918 23.5089 21.8113C23.8582 21.5419 24.0398 21.1782 24.0465 20.6748C24.0404 20.4114 23.9741 20.2098 23.8641 20.0515L23.8569 20.0411C23.7525 19.8801 23.5587 19.7094 23.2325 19.5463L23.2275 19.5438C22.8986 19.3735 22.4282 19.2002 21.8046 19.0282L21.1207 18.8524C19.7433 18.4846 18.6679 17.9553 17.9361 17.2379L17.9347 17.2365C17.198 16.5071 16.8272 15.5935 16.82 14.5233L16.82 14.5206C16.82 13.6579 17.0495 12.8686 17.5101 12.1632C17.969 11.4605 18.6021 10.916 19.3972 10.5288C20.1936 10.1343 21.0786 9.94092 22.0442 9.94092C23.0282 9.94092 23.9659 10.1527 24.853 10.5755C25.7397 10.9981 26.5077 11.5973 27.1553 12.3689L27.3965 12.6563L25.1018 14.8468L24.827 14.5276C24.0041 13.5716 23.0794 13.1164 22.042 13.1042C21.6462 13.1044 21.3048 13.1713 21.0108 13.2963C20.7252 13.4205 20.5163 13.5884 20.3683 13.7953C20.2304 13.9907 20.1591 14.2147 20.1591 14.4815C20.1591 14.7042 20.2086 14.8625 20.2847 14.9786C20.3729 15.1027 20.5309 15.2396 20.7922 15.3761C21.0627 15.514 21.4518 15.6548 21.9715 15.7943C21.9714 15.7942 21.9717 15.7943 21.9715 15.7943L22.6372 15.9705C24.203 16.3951 25.4005 16.9717 26.1799 17.7293C26.9738 18.4944 27.3661 19.4736 27.3661 20.6339C27.3661 21.5634 27.1326 22.4019 26.6574 23.1363C26.1844 23.8674 25.5234 24.4321 24.6884 24.8322C23.8577 25.2334 22.9145 25.4284 21.8685 25.4284C20.793 25.4284 19.7916 25.2191 18.8697 24.7963ZM24.5149 24.4718C25.2897 24.1007 25.8919 23.5831 26.3216 22.919C26.7513 22.255 26.9661 21.4933 26.9661 20.6339C26.9661 19.5727 26.6113 18.7003 25.9017 18.0167C25.192 17.3266 24.069 16.7732 22.5325 16.3565L21.8685 16.1808C21.3346 16.0375 20.9147 15.8878 20.6087 15.7315C20.3092 15.5753 20.0911 15.3995 19.9544 15.2042C19.8242 15.0089 19.7591 14.768 19.7591 14.4815C19.7591 14.1365 19.8535 13.8305 20.0423 13.5636C20.2376 13.2901 20.5078 13.0785 20.8528 12.9288C21.2044 12.7791 21.6015 12.7042 22.0442 12.7042C23.0985 12.7159 24.0368 13.1386 24.8593 13.9723C24.951 14.0653 25.0413 14.1635 25.1302 14.2667L26.8489 12.6261C26.237 11.8969 25.5143 11.3338 24.681 10.9366C23.8476 10.5395 22.9687 10.3409 22.0442 10.3409C21.1328 10.3409 20.3092 10.5232 19.5735 10.8878C18.8379 11.2459 18.2617 11.7439 17.845 12.3819C17.4284 13.02 17.22 13.7328 17.22 14.5206C17.2265 15.4907 17.5586 16.3012 18.2161 16.9522C18.8802 17.6033 19.8828 18.1078 21.2239 18.4659L21.9075 18.6417C22.5455 18.8175 23.0468 18.9998 23.4114 19.1886C23.776 19.3709 24.0364 19.5825 24.1927 19.8233C24.3554 20.0577 24.4401 20.3409 24.4466 20.6729C24.4401 21.2914 24.209 21.7765 23.7532 22.128C23.2975 22.4796 22.6692 22.6586 21.8685 22.6651C21.1849 22.6586 20.5664 22.5219 20.013 22.255C19.5642 22.0359 19.1329 21.7116 18.7191 21.282C18.6287 21.1882 18.5392 21.0893 18.4505 20.9854L16.7122 22.6456C17.3958 23.4334 18.1705 24.0291 19.0364 24.4327C19.9023 24.8299 20.8463 25.0284 21.8685 25.0284C22.8646 25.0284 23.7467 24.8429 24.5149 24.4718Z" fill="#EFF0F4" style="fill:#EFF0F4;fill:color(display-p3 0.9365 0.9414 0.9551);fill-opacity:1;"/>
<path d="M9.38281 21.6143C8.59505 21.6143 7.88542 21.458 7.25391 21.1455C6.6224 20.8265 6.09505 20.3675 5.67188 19.7686C5.2487 19.1696 4.94922 18.4567 4.77344 17.6299L7.23438 17.1611C7.54688 18.5413 8.26302 19.238 9.38281 19.251C9.84505 19.251 10.2487 19.1338 10.5938 18.8994C10.9388 18.665 11.2025 18.333 11.3848 17.9033C11.5736 17.4736 11.668 16.9658 11.668 16.3799V7.2002H14.1875V16.3799C14.1875 17.415 13.9857 18.3298 13.582 19.124C13.1849 19.9118 12.6217 20.5238 11.8926 20.96C11.1634 21.3962 10.3268 21.6143 9.38281 21.6143Z" fill="#EFF0F4" style="fill:#EFF0F4;fill:color(display-p3 0.9365 0.9414 0.9551);fill-opacity:1;"/>
<path fill-rule="evenodd" clip-rule="evenodd" d="M7.07616 21.5041L7.0732 21.5026C6.38117 21.153 5.80432 20.6498 5.34485 19.9995C4.88594 19.3499 4.5672 18.585 4.38184 17.7132L4.29688 17.3135L7.53882 16.696L7.62416 17.0729C7.77013 17.7176 8.00044 18.1559 8.28443 18.4321C8.55943 18.6996 8.91518 18.8452 9.38482 18.8511C9.77489 18.8507 10.0975 18.7528 10.3687 18.5686C10.6427 18.3825 10.8602 18.1148 11.0162 17.7472L11.0182 17.7425C11.1799 17.3745 11.2676 16.9239 11.2676 16.38V6.80029H14.5872V16.38C14.5872 17.4677 14.3748 18.446 13.9386 19.3048C13.5087 20.1572 12.8942 20.8268 12.0976 21.3033C11.2996 21.7807 10.3906 22.0144 9.38247 22.0144C8.54051 22.0144 7.76905 21.847 7.07616 21.5041ZM13.5817 19.1241C13.9853 18.3299 14.1872 17.4151 14.1872 16.38V7.20029H11.6676V16.38C11.6676 16.9659 11.5732 17.4737 11.3844 17.9034C11.2021 18.3331 10.9385 18.6651 10.5934 18.8995C10.2484 19.1339 9.84471 19.2511 9.38247 19.2511C8.26268 19.2381 7.54654 18.5414 7.23404 17.1612L4.7731 17.63C4.80131 17.7627 4.8327 17.8924 4.86728 18.0192C5.04818 18.6827 5.31627 19.2658 5.67154 19.7687C6.09471 20.3676 6.62206 20.8266 7.25357 21.1456C7.88508 21.4581 8.59471 21.6144 9.38247 21.6144C10.3265 21.6144 11.1631 21.3963 11.8922 20.9601C12.6214 20.5239 13.1846 19.9119 13.5817 19.1241Z" fill="#EFF0F4" style="fill:#EFF0F4;fill:color(display-p3 0.9365 0.9414 0.9551);fill-opacity:1;"/>
</svg>
