<svg width="32" height="32" viewBox="0 0 32 32" fill="none" xmlns="http://www.w3.org/2000/svg">
<path d="M21.8594 25.0283C20.8372 25.0283 19.8932 24.8298 19.0273 24.4326C18.1615 24.029 17.3867 23.4333 16.7031 22.6455L18.4414 20.9854C18.9362 21.5648 19.457 21.988 20.0039 22.2549C20.5573 22.5218 21.1758 22.6585 21.8594 22.665C22.6602 22.6585 23.2884 22.4795 23.7441 22.1279C24.1999 21.7764 24.431 21.2913 24.4375 20.6729C24.431 20.3408 24.3464 20.0576 24.1836 19.8232C24.0273 19.5824 23.7669 19.3708 23.4023 19.1885C23.0378 18.9997 22.5365 18.8174 21.8984 18.6416L21.2148 18.4658C19.8737 18.1077 18.8711 17.6032 18.207 16.9521C17.5495 16.3011 17.2174 15.4906 17.2109 14.5205C17.2109 13.7327 17.4193 13.0199 17.8359 12.3818C18.2526 11.7438 18.8288 11.2458 19.5645 10.8877C20.3001 10.5231 21.1237 10.3408 22.0352 10.3408C22.9596 10.3408 23.8385 10.5394 24.6719 10.9365C25.5052 11.3337 26.2279 11.8968 26.8398 12.626L25.1211 14.2666C24.2357 13.238 23.207 12.7171 22.0352 12.7041C21.5924 12.7041 21.1953 12.779 20.8438 12.9287C20.4987 13.0785 20.2285 13.29 20.0332 13.5635C19.8444 13.8304 19.75 14.1364 19.75 14.4814C19.75 14.7679 19.8151 15.0088 19.9453 15.2041C20.082 15.3994 20.3001 15.5752 20.5996 15.7314C20.9056 15.8877 21.3255 16.0374 21.8594 16.1807L22.5234 16.3564C24.0599 16.7731 25.1829 17.3265 25.8926 18.0166C26.6022 18.7002 26.957 19.5726 26.957 20.6338C26.957 21.4932 26.7422 22.2549 26.3125 22.9189C25.8828 23.583 25.2806 24.1006 24.5059 24.4717C23.7376 24.8428 22.8555 25.0283 21.8594 25.0283Z" fill="#00CC88" style="fill:#00CC88;fill:color(display-p3 0.0000 0.8000 0.5318);fill-opacity:1;"/>
<path fill-rule="evenodd" clip-rule="evenodd" d="M18.8658 24.7963L18.8635 24.7953C17.9422 24.3658 17.1232 23.734 16.4062 22.9078L16.1562 22.6197L18.4762 20.4041L18.7508 20.7257C19.2184 21.2733 19.6972 21.6575 20.1837 21.8951C20.6772 22.133 21.2352 22.2587 21.8648 22.2651C22.6099 22.2586 23.1414 22.0918 23.505 21.8113C23.8543 21.5419 24.0359 21.1782 24.0426 20.6748C24.0365 20.4114 23.9702 20.2098 23.8602 20.0515L23.853 20.0411C23.7485 19.8801 23.5548 19.7094 23.2286 19.5463L23.2236 19.5438C22.8947 19.3735 22.4243 19.2002 21.8007 19.0282L21.1168 18.8524C19.7394 18.4846 18.6639 17.9553 17.9322 17.2379L17.9308 17.2365C17.1941 16.5071 16.8233 15.5935 16.8161 14.5233L16.8161 14.5206C16.8161 13.6579 17.0456 12.8686 17.5062 12.1632C17.9651 11.4605 18.5981 10.916 19.3933 10.5288C20.1897 10.1343 21.0746 9.94092 22.0403 9.94092C23.0243 9.94092 23.962 10.1527 24.8491 10.5755C25.7358 10.9981 26.5038 11.5973 27.1514 12.3689L27.3926 12.6563L25.0978 14.8468L24.8231 14.5276C24.0002 13.5716 23.0755 13.1164 22.0381 13.1042C21.6423 13.1044 21.3009 13.1713 21.0069 13.2963C20.7213 13.4205 20.5124 13.5884 20.3644 13.7953C20.2265 13.9907 20.1552 14.2147 20.1552 14.4815C20.1552 14.7042 20.2047 14.8625 20.2808 14.9786C20.369 15.1027 20.527 15.2396 20.7883 15.3761C21.0587 15.514 21.4479 15.6548 21.9676 15.7943C21.9674 15.7942 21.9678 15.7943 21.9676 15.7943L22.6333 15.9705C24.1991 16.3951 25.3966 16.9717 26.176 17.7293C26.9699 18.4944 27.3622 19.4736 27.3622 20.6339C27.3622 21.5634 27.1287 22.4019 26.6535 23.1363C26.1804 23.8674 25.5195 24.4321 24.6845 24.8322C23.8538 25.2334 22.9106 25.4284 21.8646 25.4284C20.7891 25.4284 19.7877 25.2191 18.8658 24.7963ZM24.511 24.4718C25.2858 24.1007 25.888 23.5831 26.3177 22.919C26.7474 22.255 26.9622 21.4933 26.9622 20.6339C26.9622 19.5727 26.6074 18.7003 25.8978 18.0167C25.1881 17.3266 24.0651 16.7732 22.5286 16.3565L21.8646 16.1808C21.3307 16.0375 20.9108 15.8878 20.6048 15.7315C20.3053 15.5753 20.0872 15.3995 19.9505 15.2042C19.8203 15.0089 19.7552 14.768 19.7552 14.4815C19.7552 14.1365 19.8496 13.8305 20.0384 13.5636C20.2337 13.2901 20.5039 13.0785 20.8489 12.9288C21.2005 12.7791 21.5976 12.7042 22.0403 12.7042C23.0946 12.7159 24.0329 13.1386 24.8554 13.9723C24.9471 14.0653 25.0374 14.1635 25.1263 14.2667L26.845 12.6261C26.233 11.8969 25.5104 11.3338 24.6771 10.9366C23.8437 10.5395 22.9648 10.3409 22.0403 10.3409C21.1289 10.3409 20.3053 10.5232 19.5696 10.8878C18.834 11.2459 18.2578 11.7439 17.8411 12.3819C17.4245 13.02 17.2161 13.7328 17.2161 14.5206C17.2226 15.4907 17.5547 16.3012 18.2122 16.9522C18.8763 17.6033 19.8789 18.1078 21.22 18.4659L21.9036 18.6417C22.5416 18.8175 23.0429 18.9998 23.4075 19.1886C23.7721 19.3709 24.0325 19.5825 24.1888 19.8233C24.3515 20.0577 24.4362 20.3409 24.4427 20.6729C24.4362 21.2914 24.2051 21.7765 23.7493 22.128C23.2936 22.4796 22.6653 22.6586 21.8646 22.6651C21.181 22.6586 20.5625 22.5219 20.0091 22.255C19.5603 22.0359 19.129 21.7116 18.7152 21.282C18.6248 21.1882 18.5353 21.0893 18.4466 20.9854L16.7083 22.6456C17.3919 23.4334 18.1666 24.0291 19.0325 24.4327C19.8984 24.8299 20.8424 25.0284 21.8646 25.0284C22.8607 25.0284 23.7428 24.8429 24.511 24.4718Z" fill="#00CC88" style="fill:#00CC88;fill:color(display-p3 0.0000 0.8000 0.5318);fill-opacity:1;"/>
<path d="M9.38281 21.6143C8.59505 21.6143 7.88542 21.458 7.25391 21.1455C6.6224 20.8265 6.09505 20.3675 5.67188 19.7686C5.2487 19.1696 4.94922 18.4567 4.77344 17.6299L7.23438 17.1611C7.54688 18.5413 8.26302 19.238 9.38281 19.251C9.84505 19.251 10.2487 19.1338 10.5938 18.8994C10.9388 18.665 11.2025 18.333 11.3848 17.9033C11.5736 17.4736 11.668 16.9658 11.668 16.3799V7.2002H14.1875V16.3799C14.1875 17.415 13.9857 18.3298 13.582 19.124C13.1849 19.9118 12.6217 20.5238 11.8926 20.96C11.1634 21.3962 10.3268 21.6143 9.38281 21.6143Z" fill="#00CC88" style="fill:#00CC88;fill:color(display-p3 0.0000 0.8000 0.5318);fill-opacity:1;"/>
<path fill-rule="evenodd" clip-rule="evenodd" d="M7.07616 21.5041L7.0732 21.5026C6.38117 21.153 5.80432 20.6498 5.34485 19.9995C4.88594 19.3499 4.5672 18.585 4.38184 17.7132L4.29688 17.3135L7.53882 16.696L7.62416 17.0729C7.77013 17.7176 8.00044 18.1559 8.28443 18.4321C8.55943 18.6996 8.91518 18.8452 9.38482 18.8511C9.77489 18.8507 10.0975 18.7528 10.3687 18.5686C10.6427 18.3825 10.8602 18.1148 11.0162 17.7472L11.0182 17.7425C11.1799 17.3745 11.2676 16.9239 11.2676 16.38V6.80029H14.5872V16.38C14.5872 17.4677 14.3748 18.446 13.9386 19.3048C13.5087 20.1572 12.8942 20.8268 12.0976 21.3033C11.2996 21.7807 10.3906 22.0144 9.38247 22.0144C8.54051 22.0144 7.76905 21.847 7.07616 21.5041ZM13.5817 19.1241C13.9853 18.3299 14.1872 17.4151 14.1872 16.38V7.20029H11.6676V16.38C11.6676 16.9659 11.5732 17.4737 11.3844 17.9034C11.2021 18.3331 10.9385 18.6651 10.5934 18.8995C10.2484 19.1339 9.84471 19.2511 9.38247 19.2511C8.26268 19.2381 7.54654 18.5414 7.23404 17.1612L4.7731 17.63C4.80131 17.7627 4.8327 17.8924 4.86728 18.0192C5.04818 18.6827 5.31627 19.2658 5.67154 19.7687C6.09471 20.3676 6.62206 20.8266 7.25357 21.1456C7.88508 21.4581 8.59471 21.6144 9.38247 21.6144C10.3265 21.6144 11.1631 21.3963 11.8922 20.9601C12.6214 20.5239 13.1846 19.9119 13.5817 19.1241Z" fill="#00CC88" style="fill:#00CC88;fill:color(display-p3 0.0000 0.8000 0.5318);fill-opacity:1;"/>
</svg>
